<svg width="40" height="36" viewBox="0 0 40 36" fill="none" xmlns="http://www.w3.org/2000/svg">
<path d="M39.5718 0.759731H0.503299C0.284037 0.759731 0.104641 0.939127 0.104641 1.15839V4.34765C0.104641 4.56692 0.284037 4.74631 0.503299 4.74631H39.5718C39.7911 4.74631 39.9705 4.56692 39.9705 4.34765V1.15839C39.9705 0.939127 39.7911 0.759731 39.5718 0.759731ZM39.5718 31.8551H0.503299C0.284037 31.8551 0.104641 32.0345 0.104641 32.2537V35.443C0.104641 35.6623 0.284037 35.8416 0.503299 35.8416H39.5718C39.7911 35.8416 39.9705 35.6623 39.9705 35.443V32.2537C39.9705 32.0345 39.7911 31.8551 39.5718 31.8551ZM39.5718 16.3074H0.503299C0.284037 16.3074 0.104641 16.4868 0.104641 16.7061V19.8953C0.104641 20.1146 0.284037 20.294 0.503299 20.294H39.5718C39.7911 20.294 39.9705 20.1146 39.9705 19.8953V16.7061C39.9705 16.4868 39.7911 16.3074 39.5718 16.3074Z" fill="black"/>
</svg>
